<svg width="306" height="36" viewBox="0 0 306 36" fill="none" xmlns="http://www.w3.org/2000/svg">
<g clip-path="url(#clip0_2_387)">
<path fill-rule="evenodd" clip-rule="evenodd" d="M280.438 6.93923L292.85 17.2485H305.598V18.6484H292.346L280.409 8.73509L271.224 15.8866L270.364 14.7821L280.438 6.93923Z" fill="black"/>
<path fill-rule="evenodd" clip-rule="evenodd" d="M280.459 12.7409L288.717 19.4736H270.674L280.459 12.7409ZM275.178 18.0736H284.786L280.388 14.4892L275.178 18.0736Z" fill="black"/>
<path fill-rule="evenodd" clip-rule="evenodd" d="M258.47 4.58899V0.133774H259.87V4.94234L263.743 5.92062L263.635 7.29622L259.87 7.63865V9.27099L270.03 10.1664L270.112 11.5487L259.87 13.7013V15.1096L266.329 15.8079L266.179 17.1998L259.87 16.5177V22.2298L280.33 25.5802L280.217 26.9709H259.87V27.8529H258.47V26.9709H246.032V25.5709H258.47V23.4192L244.819 21.184L245.045 19.8026L258.47 22.0005V16.3662L250.909 15.5489L250.841 14.168L258.47 12.5648V10.5531L251.955 9.97909L252.078 8.58474L258.47 9.14752V7.76632L256.826 7.91584L256.699 6.52148L258.47 6.36049V6.0329L256.591 5.5586L256.934 4.20148L258.47 4.58927V4.58899ZM259.87 10.6765V12.2705L265.214 11.1475L259.87 10.6765ZM258.47 13.9953L255.445 14.6311L258.47 14.9582V13.9953ZM259.87 23.6485V25.5709H271.61L259.87 23.6485ZM273.808 4.05589V0.133774H275.208V4.2362L279.619 4.80458L279.67 6.18438L275.208 7.10219V7.27494H277.672V8.67489H275.208V9.28191H273.808V8.67489H267.492L267.351 7.28922L273.808 5.96094V5.4676L268.228 4.74886L268.407 3.36039L273.808 4.05589ZM275.208 5.64791V5.67311L275.284 5.65743L275.208 5.64791ZM290.453 8.13339V4.8799H291.853V7.48465L292.166 7.3399L292.754 8.60994L291.853 9.02768V9.89369L294.91 11.8948L291.853 13.1732V14.8532H290.453V13.7584L289.91 13.9858L289.369 12.6942L290.453 12.2411V10.6508L288.202 9.17692L290.453 8.13339ZM291.853 11.5669V11.6557L291.937 11.6212L291.853 11.5669ZM288.997 24.0254H286.158V25.2148H288.997V24.0254ZM286.158 22.6254C285.382 22.6254 284.758 23.2523 284.758 24.0254V25.2148C284.758 25.9881 285.382 26.6147 286.158 26.6147H288.997C289.368 26.6147 289.724 26.4673 289.987 26.2047C290.249 25.9422 290.397 25.5861 290.397 25.2148V24.0254C290.397 23.6541 290.249 23.298 289.987 23.0355C289.724 22.7729 289.368 22.6254 288.997 22.6254H286.158ZM296.562 24.0254H293.723V25.2148H296.562V24.0254ZM293.723 22.6254C293.352 22.6254 292.996 22.7729 292.733 23.0355C292.471 23.298 292.323 23.6541 292.323 24.0254V25.2148C292.323 25.5861 292.471 25.9422 292.733 26.2047C292.996 26.4673 293.352 26.6147 293.723 26.6147H296.562C296.934 26.6147 297.29 26.4673 297.552 26.2047C297.815 25.9422 297.962 25.5861 297.962 25.2148V24.0254C297.962 23.6541 297.815 23.298 297.552 23.0355C297.29 22.7729 296.934 22.6254 296.562 22.6254H293.723ZM304.268 24.0254H301.426V25.2148H304.268V24.0254ZM301.426 22.6254C301.054 22.6254 300.698 22.7729 300.436 23.0355C300.173 23.298 300.026 23.6541 300.026 24.0254V25.2148C300.026 25.5861 300.173 25.9422 300.436 26.2047C300.698 26.4673 301.054 26.6147 301.426 26.6147H304.268C304.639 26.6147 304.995 26.4673 305.258 26.2047C305.52 25.9422 305.668 25.5861 305.668 25.2148V24.0254C305.668 23.6541 305.52 23.298 305.258 23.0355C304.995 22.7729 304.639 22.6254 304.268 22.6254H301.426Z" fill="black"/>
<path fill-rule="evenodd" clip-rule="evenodd" d="M246.719 21.8882L255.798 19.0682L256.213 20.4051L251.153 21.9767L273.496 22.6137L273.515 24.0122L246.209 25.5253L246.131 24.1276L256.777 23.5376L246.907 23.2563L246.719 21.8882Z" fill="black"/>
<path d="M16.6079 22.0011C16.6079 19.3215 15.4683 17.3812 13.3124 16.5804C15.1603 15.7489 16.0227 13.9317 16.0227 11.9298C16.0227 8.6343 13.6204 5.95479 9.37013 5.95479C5.11987 5.95479 2.56355 8.5111 2.22476 12.361H4.93507C5.11987 10.359 6.22863 8.35711 9.37013 8.35711C11.9572 8.35711 13.4048 9.86626 13.4048 11.9298C13.4048 14.0857 12.3268 15.4409 9.61652 15.4409H7.67618V17.9356H9.67812C13.0352 17.9356 13.99 19.6603 13.99 22.0011C13.99 24.2802 12.3884 25.7893 9.12373 25.7893C5.85904 25.7893 4.50389 23.8798 4.1035 21.7547H1.39319C1.76278 25.081 4.31909 28.2225 9.12373 28.2225C14.1132 28.2225 16.6079 25.5121 16.6079 22.0011ZM30.2922 27.8529H32.8793C32.6329 27.2369 32.4173 26.0665 32.4173 25.2658V16.5188C32.4173 13.5621 30.2614 11.591 26.0111 11.591C21.9456 11.591 19.3277 13.6545 19.1429 16.8268H21.8532C22.1304 14.5169 24.3172 13.9933 25.9803 13.9933C28.6598 13.9933 29.861 14.9481 29.861 16.2108C29.861 17.4736 28.5982 18.182 24.7175 18.3668C20.6213 18.5824 18.2498 20.0607 18.2498 23.3254C18.2498 26.7441 21.1757 28.2225 24.4404 28.2225C26.9043 28.2225 28.7522 27.4217 29.8918 26.0357C29.9226 26.7749 30.0766 27.3909 30.2922 27.8529ZM29.861 21.7547C29.7994 24.619 27.2431 25.7893 24.5327 25.7893C22.5 25.7893 20.8369 25.0502 20.8369 23.3254C20.8369 22.0011 21.6068 20.7999 25.0563 20.5843C26.9351 20.4611 28.8138 20.2455 29.861 19.3215V21.7547ZM46.7814 11.9914H35.9401V27.8529H38.5272V14.4553H46.7814V11.9914ZM55.9892 11.591C51.4925 11.591 48.0122 15.3485 48.0122 19.9683C48.0122 24.5266 51.4925 28.2225 55.9892 28.2225C60.5166 28.2225 63.9661 24.5266 63.9661 19.9683C63.9661 15.3485 60.5166 11.591 55.9892 11.591ZM55.9892 25.8201C53.0633 25.8201 50.6609 23.2022 50.6609 19.9683C50.6609 16.6728 53.0633 13.9933 55.9892 13.9933C58.9459 13.9933 61.3482 16.6728 61.3482 19.9683C61.3482 23.2022 58.9459 25.8201 55.9892 25.8201ZM82.3184 19.8759C82.3184 15.3177 78.9613 11.591 74.403 11.591C72.0623 11.591 70.0296 12.9154 68.9208 14.5169V11.9914H66.3953V34.9058H69.0132V25.4505C70.1528 26.9905 72.1239 28.2225 74.403 28.2225C78.9613 28.2225 82.3184 24.4958 82.3184 19.8759ZM79.7005 19.8759C79.7005 23.1406 77.3597 25.8201 74.403 25.8201C71.4771 25.8201 69.0132 23.1406 69.0132 19.8759C69.0132 16.642 71.4771 13.9933 74.403 13.9933C77.3597 13.9933 79.7005 16.642 79.7005 19.8759ZM91.5572 11.591C87.0606 11.591 83.5803 15.3485 83.5803 19.9683C83.5803 24.5266 87.0606 28.2225 91.5572 28.2225C96.0847 28.2225 99.5342 24.5266 99.5342 19.9683C99.5342 15.3485 96.0847 11.591 91.5572 11.591ZM91.5572 25.8201C88.6313 25.8201 86.229 23.2022 86.229 19.9683C86.229 16.6728 88.6313 13.9933 91.5572 13.9933C94.5139 13.9933 96.9163 16.6728 96.9163 19.9683C96.9163 23.2022 94.5139 25.8201 91.5572 25.8201ZM102.179 25.3889H100.608V31.1176H103.195V27.8529H114.96V31.1176H117.547V25.3889H115.915L112.866 11.9914H105.351C105.351 11.9914 102.209 25.3889 102.179 25.3889ZM113.359 25.3889H104.766L107.322 14.4553H110.895L113.359 25.3889ZM130.865 18.1204H122.364V11.9914H119.777V27.8529H122.364V20.5843H130.865V27.8529H133.452V11.9914H130.865V18.1204ZM152.762 11.9914H150.144V27.8529H152.762V11.9914ZM139.457 11.9914H136.87V27.8529H142.383C145.124 27.8529 147.988 26.4053 147.988 22.925C147.988 19.4447 145.124 17.9972 142.383 17.9972H139.457V11.9914ZM145.401 22.925C145.401 24.5574 144.138 25.3889 142.383 25.3889H139.457V20.3995H142.383C144.138 20.3995 145.401 21.2927 145.401 22.925ZM167.764 5.33881H165.67C165.424 6.44757 164.808 7.61793 163.083 7.61793C161.358 7.61793 160.742 6.44757 160.496 5.33881H158.401C158.555 7.77193 160.373 9.68146 163.083 9.68146C165.793 9.68146 167.61 7.77193 167.764 5.33881ZM158.987 27.8529L167.426 15.4717V27.8529H170.013V11.9914H167.364L158.925 24.3726V11.9914H156.338V27.8529H158.987Z" fill="black"/>
<path d="M174.878 25.3889H173.308V31.1176H175.895V27.8529H187.66V31.1176H190.247V25.3889H188.615L185.566 11.9914H178.051C178.051 11.9914 174.909 25.3889 174.878 25.3889ZM186.058 25.3889H177.465L180.022 14.4553H183.594L186.058 25.3889ZM199.283 11.591C194.787 11.591 191.306 15.3485 191.306 19.9683C191.306 24.5266 194.787 28.2225 199.283 28.2225C203.811 28.2225 207.26 24.5266 207.26 19.9683C207.26 15.3485 203.811 11.591 199.283 11.591ZM199.283 25.8201C196.358 25.8201 193.955 23.2022 193.955 19.9683C193.955 16.6728 196.358 13.9933 199.283 13.9933C202.24 13.9933 204.642 16.6728 204.642 19.9683C204.642 23.2022 202.24 25.8201 199.283 25.8201ZM226.598 11.9914H222.871L218.159 24.4958L213.447 11.9914H209.689V27.8529H212.215V15.4101L216.896 27.8529H219.391L224.072 15.4101V27.8529H226.598V11.9914Z" fill="#4BA3E2"/>
</g>
<defs>
<clipPath id="clip0_2_387">
<rect width="305.19" height="34.9989" fill="white" transform="translate(0.5 0.133774)"/>
</clipPath>
</defs>
</svg>
