<svg width="100" height="100" viewBox="0 0 100 100" fill="none" xmlns="http://www.w3.org/2000/svg">
<rect x="25" y="33" width="50" height="50" fill="#727272"/>
<rect x="59" y="14" width="7" height="14" fill="#2C2626"/>
<path d="M49.3878 13L20 33H80L49.3878 13Z" fill="#343434"/>
<rect x="30.5" y="45.5" width="14" height="24" fill="#FCFFD5" stroke="#2C2626"/>
<rect x="56.5" y="45.5" width="14" height="24" fill="#FCFFD5" stroke="#2C2626"/>
<rect x="24" y="78" width="53" height="5" fill="#2C2626"/>
<rect x="37" y="46" width="1" height="23" fill="#2C2626"/>
<rect x="63" y="46" width="1" height="23" fill="#2C2626"/>
<rect x="31" y="50" width="13" height="1" fill="#2C2626"/>
<rect x="57" y="50" width="13" height="1" fill="#2C2626"/>
<rect x="31" y="55" width="13" height="1" fill="#2C2626"/>
<rect x="57" y="55" width="13" height="1" fill="#2C2626"/>
<rect x="31" y="60" width="13" height="1" fill="#2C2626"/>
<rect x="57" y="60" width="13" height="1" fill="#2C2626"/>
<rect x="31" y="65" width="13" height="1" fill="#2C2626"/>
<rect x="57" y="65" width="13" height="1" fill="#2C2626"/>
<rect x="20" y="33" width="60" height="5" fill="#343434"/>
</svg>
